<svg viewBox="83.627 14.764 474.748 107.99" width="474.748" height="107.99" xmlns="http://www.w3.org/2000/svg">
  <g style="line-height:1;font-variant-ligatures:normal;text-align:center" font-weight="400" font-size="72" font-family="Brandmark Sans 2 Color" text-anchor="middle">
    <path class="c1" d="M225.51 118.417h-25.49l-17.86-32.978h-14.544v32.978h-22.61V17.609h41.188c24.192 0 38.018 10.802 38.018 32.98 0 16.992-7.2 27.65-20.306 32.258l21.602 35.57zm-22.467-66.964c0-11.09-6.48-15.266-18.146-15.266h-17.426v30.818h17.426c11.522 0 18.146-4.32 18.146-15.552zm160.409-33.7l-42.774 90.584h-14.687l-25.059-60.774v70.998h-19.875V17.753h25.203l27.075 62.789 31.25-62.79z" fill="#c9d2b9"/>
    <path class="c3" d="M345.592 75.214c.29-.577 7.202-20.018 19.875-27.939v71.286h-19.586l-.144-43.204-.145-.143z" fill="#8da394"/>
    <path class="c1" d="M404.807 118.561V17.753h22.611V118.56h-22.61zm-317.616.744V18.497h22.612v100.808H87.191z" fill="#c9d2b9"/>
    <path class="c1" d="M487.575 17.753L554.83 118.56h-23.185l-43.203-65.67v65.67h-21.028V17.753h20.162zm67.254 0v77.91c-14.113-8.64-19.728-25.202-20.88-29.235V17.753h20.88z" style="transform-box:fill-box;transform-origin:50% 50%" fill="#c9d2b9"/>
    <path class="c3" d="M533.565 66.5c.318.653 7.8 22.543 21.524 31.463V17.697h-21.206l-.162 48.646-.156.158z" style="transform-origin:604.925px -30.363px" fill="#8da394"/>
  </g>
</svg>
